<svg width="28" height="28" viewBox="0 0 28 28" fill="none" xmlns="http://www.w3.org/2000/svg">
<path d="M14.0002 2.33325C7.57183 2.33325 2.3335 7.57159 2.3335 13.9999C2.3335 20.4283 7.57183 25.6666 14.0002 25.6666C20.4285 25.6666 25.6668 20.4283 25.6668 13.9999C25.6668 7.57159 20.4285 2.33325 14.0002 2.33325ZM17.9202 16.6833C18.2585 17.0216 18.2585 17.5816 17.9202 17.9199C17.7452 18.0949 17.5235 18.1766 17.3018 18.1766C17.0802 18.1766 16.8585 18.0949 16.6835 17.9199L14.0002 15.2366L11.3168 17.9199C11.1418 18.0949 10.9202 18.1766 10.6985 18.1766C10.4768 18.1766 10.2552 18.0949 10.0802 17.9199C9.74183 17.5816 9.74183 17.0216 10.0802 16.6833L12.7635 13.9999L10.0802 11.3166C9.74183 10.9783 9.74183 10.4183 10.0802 10.0799C10.4185 9.74159 10.9785 9.74159 11.3168 10.0799L14.0002 12.7633L16.6835 10.0799C17.0218 9.74159 17.5818 9.74159 17.9202 10.0799C18.2585 10.4183 18.2585 10.9783 17.9202 11.3166L15.2368 13.9999L17.9202 16.6833Z" fill="#B1B1B1"/>
</svg>
