<svg width="46" height="46" viewBox="0 0 46 46" fill="none" xmlns="http://www.w3.org/2000/svg">
<rect x="41.3184" y="41.3181" width="36.6364" height="36.6364" rx="3.5" transform="rotate(-180 41.3184 41.3181)" stroke="#B1B1B1"/>
<path d="M27.8553 26.2266C27.495 26.2266 27.1347 26.3513 26.8502 26.6185L23.0003 30.2347L19.1503 26.6185C18.6003 26.1019 17.69 26.1019 17.14 26.6185C16.59 27.1351 16.59 27.9902 17.14 28.5068L21.9951 33.0671C22.5451 33.5837 23.4554 33.5837 24.0054 33.0671L28.8605 28.5068C29.4105 27.9902 29.4105 27.1351 28.8605 26.6185C28.576 26.3513 28.2157 26.2266 27.8553 26.2266Z" fill="#B1B1B1"/>
<path d="M23.001 12.5456C22.2234 12.5456 21.5786 13.1513 21.5786 13.8817V31.9984C21.5786 32.7288 22.2234 33.3345 23.001 33.3345C23.7786 33.3345 24.4234 32.7288 24.4234 31.9984V13.8817C24.4234 13.1335 23.7786 12.5456 23.001 12.5456Z" fill="#B1B1B1"/>
</svg>
