<svg width="16" height="16" viewBox="0 0 16 16" fill="none" xmlns="http://www.w3.org/2000/svg">
<path d="M8.00016 14.6667C4.32683 14.6667 1.3335 11.6734 1.3335 8.00008C1.3335 4.32675 4.32683 1.33341 8.00016 1.33341C11.6735 1.33341 14.6668 4.32675 14.6668 8.00008C14.6668 11.6734 11.6735 14.6667 8.00016 14.6667ZM7.50016 10.6667C7.50016 10.9401 7.72683 11.1667 8.00016 11.1667C8.2735 11.1667 8.50016 10.9401 8.50016 10.6667V7.33341C8.50016 7.06008 8.2735 6.83341 8.00016 6.83341C7.72683 6.83341 7.50016 7.06008 7.50016 7.33341V10.6667ZM8.6135 5.08008C8.58016 4.99341 8.5335 4.92675 8.4735 4.86008C8.40683 4.80008 8.3335 4.75341 8.2535 4.72008C8.1735 4.68675 8.08683 4.66675 8.00016 4.66675C7.9135 4.66675 7.82683 4.68675 7.74683 4.72008C7.66683 4.75341 7.5935 4.80008 7.52683 4.86008C7.46683 4.92675 7.42016 4.99341 7.38683 5.08008C7.3535 5.16008 7.3335 5.24675 7.3335 5.33341C7.3335 5.42008 7.3535 5.50675 7.38683 5.58675C7.42016 5.66675 7.46683 5.74008 7.52683 5.80675C7.5935 5.86675 7.66683 5.91341 7.74683 5.94675C7.90683 6.01341 8.0935 6.01341 8.2535 5.94675C8.3335 5.91341 8.40683 5.86675 8.4735 5.80675C8.5335 5.74008 8.58016 5.66675 8.6135 5.58675C8.64683 5.50675 8.66683 5.42008 8.66683 5.33341C8.66683 5.24675 8.64683 5.16008 8.6135 5.08008Z" fill="#646464"/>
</svg>
