<svg width="46" height="46" viewBox="0 0 46 46" fill="none" xmlns="http://www.w3.org/2000/svg">
<path d="M35.771 13.8284C35.771 14.5298 35.1326 15.1115 34.3628 15.1115L23.4056 15.1115C21.0774 15.1115 19.1811 16.8393 19.1811 18.9606L19.1811 29.5397C19.1811 30.2411 18.5427 30.8228 17.7729 30.8228C17.0031 30.8228 16.3647 30.2411 16.3647 29.5397L16.3647 18.9606C16.3647 15.4194 19.519 12.5453 23.4056 12.5453L34.3628 12.5453C35.1514 12.5453 35.771 13.127 35.771 13.8284Z" fill="#B1B1B1"/>
<path d="M25.1324 26.5415C25.1324 26.8665 25.0009 27.1915 24.7193 27.4481L18.7863 32.8541C18.5234 33.0936 18.1666 33.2305 17.7911 33.2305C17.4156 33.2305 17.0589 33.0936 16.7961 32.8541L10.863 27.4481C10.3185 26.952 10.3185 26.1309 10.863 25.6348C11.4074 25.1386 12.3088 25.1386 12.8533 25.6348L17.7911 30.134L22.7291 25.6348C23.2736 25.1386 24.1748 25.1386 24.7193 25.6348C24.9821 25.8914 25.1324 26.2164 25.1324 26.5415Z" fill="#B1B1B1"/>
<rect x="4.68164" y="4.68188" width="36.6364" height="36.6364" rx="3.5" stroke="#B1B1B1"/>
</svg>
