<svg width="46" height="46" viewBox="0 0 46 46" fill="none" xmlns="http://www.w3.org/2000/svg">
<rect x="0.5" y="0.5" width="36.6364" height="36.6364" rx="3.5" transform="matrix(-4.37114e-08 1 1 4.37114e-08 4.18164 4.18188)" stroke="#B1B1B1"/>
<path d="M19.7734 18.1447C19.7734 18.505 19.6487 18.8653 19.3815 19.1498L15.7653 22.9997L19.3815 26.8497C19.8981 27.3997 19.8981 28.31 19.3815 28.86C18.8649 29.41 18.0098 29.41 17.4932 28.86L12.9329 24.0049C12.4163 23.4549 12.4163 22.5446 12.9329 21.9946L17.4932 17.1395C18.0098 16.5895 18.8649 16.5895 19.3815 17.1395C19.6487 17.424 19.7734 17.7843 19.7734 18.1447Z" fill="#B1B1B1"/>
<path d="M33.4544 22.999C33.4544 23.7766 32.8487 24.4214 32.1183 24.4214L14.0016 24.4214C13.2712 24.4214 12.6655 23.7766 12.6655 22.999C12.6655 22.2214 13.2712 21.5766 14.0016 21.5766L32.1183 21.5766C32.8665 21.5766 33.4544 22.2214 33.4544 22.999Z" fill="#B1B1B1"/>
</svg>
