<svg width="46" height="46" viewBox="0 0 46 46" fill="none" xmlns="http://www.w3.org/2000/svg">
<path d="M11.3797 13.8284C11.3797 14.5298 11.989 15.1115 12.7238 15.1115L23.183 15.1115C25.4054 15.1115 27.2155 16.8393 27.2155 18.9606L27.2155 29.5397C27.2155 30.2411 27.8248 30.8228 28.5597 30.8228C29.2945 30.8228 29.9038 30.2411 29.9038 29.5397L29.9038 18.9606C29.9038 15.4194 26.8929 12.5453 23.183 12.5453L12.7238 12.5453C11.9711 12.5453 11.3797 13.127 11.3797 13.8284Z" fill="#B1B1B1"/>
<path d="M21.5348 26.5417C21.5348 26.8667 21.6603 27.1918 21.9291 27.4484L27.5924 32.8543C27.8433 33.0939 28.1839 33.2307 28.5424 33.2307C28.9008 33.2307 29.2413 33.0939 29.4922 32.8543L35.1556 27.4484C35.6753 26.9523 35.6753 26.1311 35.1556 25.635C34.6359 25.1389 33.7755 25.1389 33.2558 25.635L28.5424 30.1342L23.8288 25.635C23.3091 25.1389 22.4488 25.1389 21.9291 25.635C21.6782 25.8916 21.5348 26.2167 21.5348 26.5417Z" fill="#B1B1B1"/>
<rect x="-0.5" y="0.5" width="36.6364" height="36.6364" rx="3.5" transform="matrix(-1 0 0 1 40.8184 4.18188)" stroke="#B1B1B1"/>
</svg>
