<svg width="46" height="46" viewBox="0 0 46 46" fill="none" xmlns="http://www.w3.org/2000/svg">
<rect x="-0.5" y="-0.5" width="36.6364" height="36.6364" rx="3.5" transform="matrix(1.19249e-08 -1 -1 -1.19249e-08 40.8184 40.8181)" stroke="#B1B1B1"/>
<path d="M26.2266 27.8553C26.2266 27.495 26.3513 27.1347 26.6185 26.8502L30.2347 23.0003L26.6185 19.1503C26.1019 18.6003 26.1019 17.69 26.6185 17.14C27.1351 16.59 27.9902 16.59 28.5068 17.14L33.0671 21.9951C33.5837 22.5451 33.5837 23.4554 33.0671 24.0054L28.5068 28.8605C27.9902 29.4105 27.1351 29.4105 26.6185 28.8605C26.3513 28.576 26.2266 28.2157 26.2266 27.8553Z" fill="#B1B1B1"/>
<path d="M12.5456 23.001C12.5456 22.2234 13.1513 21.5786 13.8817 21.5786L31.9984 21.5786C32.7288 21.5786 33.3345 22.2234 33.3345 23.001C33.3345 23.7786 32.7288 24.4234 31.9984 24.4234L13.8817 24.4234C13.1335 24.4234 12.5456 23.7786 12.5456 23.001Z" fill="#B1B1B1"/>
</svg>
