<svg width="46" height="46" viewBox="0 0 46 46" fill="none" xmlns="http://www.w3.org/2000/svg">
<rect x="-0.5" y="0.5" width="36.6364" height="36.6364" rx="3.5" transform="matrix(-1 0 0 1 40.8184 4.18188)" stroke="#B1B1B1"/>
<path d="M27.8553 19.7734C27.495 19.7734 27.1347 19.6487 26.8502 19.3815L23.0003 15.7653L19.1503 19.3815C18.6003 19.8981 17.69 19.8981 17.14 19.3815C16.59 18.8649 16.59 18.0098 17.14 17.4932L21.9951 12.9329C22.5451 12.4163 23.4554 12.4163 24.0054 12.9329L28.8605 17.4932C29.4105 18.0098 29.4105 18.8649 28.8605 19.3815C28.576 19.6487 28.2157 19.7734 27.8553 19.7734Z" fill="#B1B1B1"/>
<path d="M23.001 33.4544C22.2234 33.4544 21.5786 32.8487 21.5786 32.1183V14.0016C21.5786 13.2712 22.2234 12.6655 23.001 12.6655C23.7786 12.6655 24.4234 13.2712 24.4234 14.0016V32.1183C24.4234 32.8665 23.7786 33.4544 23.001 33.4544Z" fill="#B1B1B1"/>
</svg>
