<svg xmlns="http://www.w3.org/2000/svg" width="20" height="20" fill="none" viewBox="0 0 20 20"><path fill="#1B1B1B" d="M12.7 18.558h-.108c-3.7 0-5.484-1.458-5.792-4.725a.626.626 0 0 1 .567-.683.637.637 0 0 1 .683.567c.242 2.616 1.475 3.591 4.55 3.591h.108c3.392 0 4.592-1.2 4.592-4.591V7.283c0-3.391-1.2-4.591-4.592-4.591H12.6c-3.092 0-4.325.991-4.55 3.658a.632.632 0 0 1-.683.567.626.626 0 0 1-.575-.675c.283-3.317 2.075-4.8 5.8-4.8h.108c4.092 0 5.842 1.75 5.842 5.841v5.434c0 4.091-1.75 5.841-5.842 5.841z"/><path fill="#1B1B1B" d="M12.5 10.625H3.017A.63.63 0 0 1 2.392 10a.63.63 0 0 1 .625-.625H12.5a.63.63 0 0 1 .625.625.63.63 0 0 1-.625.625z"/><path fill="#1B1B1B" d="M4.875 13.417a.618.618 0 0 1-.442-.184l-2.791-2.791a.629.629 0 0 1 0-.884l2.791-2.791a.629.629 0 0 1 .884 0 .629.629 0 0 1 0 .883L2.967 10l2.35 2.35a.629.629 0 0 1 0 .883.605.605 0 0 1-.442.184z"/></svg>