<svg width="18" height="20" viewBox="0 0 18 20" fill="none" xmlns="http://www.w3.org/2000/svg">
<path d="M9.24577 7.51211C8.73283 7.46145 8.21678 7.57057 7.76825 7.82454C7.31973 8.07851 6.96067 8.4649 6.74023 8.93082C6.51979 9.39673 6.44875 9.91939 6.53684 10.4272C6.62493 10.9351 6.86783 11.4033 7.2323 11.7678C7.59676 12.1322 8.06497 12.3751 8.57282 12.4632C9.08067 12.5513 9.60334 12.4803 10.0693 12.2598C10.5352 12.0394 10.9216 11.6803 11.1755 11.2318C11.4295 10.7833 11.5386 10.2672 11.488 9.7543C11.4302 9.17929 11.1754 8.64193 10.7668 8.23329C10.3581 7.82465 9.82078 7.56986 9.24577 7.51211V7.51211ZM15.2653 10C15.2637 10.2717 15.2437 10.5431 15.2055 10.8121L16.9716 12.1973C17.0485 12.261 17.1003 12.35 17.1178 12.4483C17.1353 12.5466 17.1174 12.648 17.0673 12.7344L15.3966 15.625C15.3458 15.7106 15.2665 15.7754 15.1726 15.8082C15.0787 15.841 14.9762 15.8396 14.8833 15.8043L13.1294 15.098C13.0326 15.0595 12.9279 15.0456 12.8245 15.0576C12.721 15.0695 12.6222 15.1069 12.5368 15.1664C12.2691 15.3507 11.9878 15.5145 11.6954 15.6562C11.6034 15.7009 11.5239 15.7676 11.4638 15.8503C11.4037 15.933 11.3649 16.0292 11.3509 16.1305L11.088 18.0012C11.0707 18.1 11.0197 18.1897 10.9436 18.255C10.8675 18.3204 10.771 18.3573 10.6708 18.3594H7.32937C7.23075 18.3577 7.13565 18.3224 7.05975 18.2594C6.98385 18.1965 6.93166 18.1095 6.91179 18.0129L6.64929 16.1449C6.63455 16.0426 6.59474 15.9454 6.53341 15.8621C6.47207 15.7789 6.39111 15.712 6.29772 15.6676C6.00562 15.5266 5.72529 15.3624 5.45944 15.1766C5.37432 15.1173 5.27581 15.0802 5.17277 15.0686C5.06973 15.0569 4.96541 15.0711 4.86921 15.1098L3.11569 15.8156C3.02277 15.851 2.92033 15.8525 2.82644 15.8197C2.73254 15.787 2.65321 15.7222 2.60241 15.6367L0.931708 12.7461C0.881478 12.6597 0.863529 12.5583 0.881054 12.46C0.89858 12.3616 0.950443 12.2727 1.02741 12.209L2.51999 11.0371C2.60176 10.9722 2.66603 10.8879 2.70696 10.7918C2.74789 10.6958 2.76418 10.5911 2.75436 10.4871C2.7403 10.3242 2.73171 10.1617 2.73171 9.99883C2.73171 9.83594 2.73991 9.67578 2.75436 9.51641C2.76311 9.4131 2.74601 9.30924 2.70462 9.21418C2.66323 9.11912 2.59884 9.03585 2.51725 8.97187L1.02546 7.8C0.949739 7.73597 0.898969 7.64734 0.882042 7.54964C0.865115 7.45194 0.883112 7.35139 0.93288 7.26562L2.60358 4.375C2.65432 4.28945 2.73363 4.22455 2.82753 4.19175C2.92143 4.15895 3.02389 4.16035 3.11686 4.1957L4.87077 4.90195C4.96749 4.94046 5.07226 4.95438 5.17567 4.94245C5.27909 4.93052 5.37794 4.89311 5.46335 4.83359C5.73103 4.64927 6.0123 4.48552 6.30476 4.34375C6.3967 4.29906 6.47623 4.23242 6.53631 4.14972C6.5964 4.06701 6.6352 3.97078 6.64929 3.86953L6.91218 1.99883C6.92944 1.90003 6.98049 1.8103 7.05658 1.74496C7.13267 1.67963 7.22909 1.64275 7.32937 1.64062H10.6708C10.7694 1.64233 10.8645 1.67758 10.9404 1.74056C11.0163 1.80354 11.0685 1.8905 11.0884 1.98711L11.3509 3.85508C11.3656 3.95745 11.4054 4.05459 11.4667 4.13787C11.5281 4.22114 11.609 4.28798 11.7024 4.33242C11.9945 4.47342 12.2748 4.63762 12.5407 4.82344C12.6258 4.88266 12.7243 4.91978 12.8274 4.93144C12.9304 4.9431 13.0347 4.92894 13.1309 4.89023L14.8844 4.18438C14.9774 4.14899 15.0798 4.14753 15.1737 4.18026C15.2676 4.21299 15.3469 4.2778 15.3977 4.36328L17.0684 7.25391C17.1187 7.34027 17.1366 7.44165 17.1191 7.54001C17.1016 7.63837 17.0497 7.72732 16.9727 7.79102L15.4801 8.96289C15.398 9.02759 15.3334 9.1118 15.2921 9.20786C15.2508 9.30392 15.2342 9.40878 15.2438 9.51289C15.2567 9.67461 15.2653 9.83711 15.2653 10Z" stroke="black" stroke-width="1.5" stroke-linecap="round" stroke-linejoin="round"/>
</svg>
