<svg width="20" height="20" viewBox="0 0 20 20" fill="none" xmlns="http://www.w3.org/2000/svg">
<path d="M6.25 6.40625C6.25 6.40625 6.30625 5.11719 7.56016 4.08359C8.30469 3.46992 9.19883 3.29219 10 3.28125C10.7316 3.27227 11.3855 3.39609 11.7766 3.58672C12.4449 3.91406 13.75 4.71094 13.75 6.40625C13.75 8.19023 12.6102 8.99883 11.3145 9.88984C10.0187 10.7809 9.6875 11.6547 9.6875 12.6562" stroke="black" stroke-width="1.5" stroke-miterlimit="10" stroke-linecap="round"/>
<path d="M9.6875 16.8746C10.3779 16.8746 10.9375 16.315 10.9375 15.6246C10.9375 14.9343 10.3779 14.3746 9.6875 14.3746C8.99714 14.3746 8.4375 14.9343 8.4375 15.6246C8.4375 16.315 8.99714 16.8746 9.6875 16.8746Z" fill="black"/>
</svg>
