<svg xmlns="http://www.w3.org/2000/svg" width="24" height="24" fill="none" viewBox="0 0 24 24"><path fill="#3CC" fill-rule="evenodd" d="M0 12C0 5.373 5.373 0 12 0s12 5.373 12 12-5.373 12-12 12S0 18.627 0 12z" clip-rule="evenodd"/><path fill="#fff" fill-rule="evenodd" d="M11.64 9.754l.026.415-.42-.05c-1.528-.196-2.862-.857-3.995-1.967l-.554-.55-.143.406c-.302.907-.11 1.865.52 2.509.336.356.26.406-.319.194-.201-.067-.377-.118-.394-.093-.059.06.143.83.302 1.136.218.424.663.839 1.15 1.085l.411.194-.486.009c-.47 0-.487.008-.437.186.168.551.831 1.136 1.57 1.39l.52.178-.453.271c-.672.39-1.46.61-2.25.627-.377.009-.688.043-.688.068 0 .085 1.024.56 1.62.746 1.788.55 3.911.313 5.506-.627 1.133-.67 2.267-2 2.795-3.288.286-.687.571-1.94.571-2.543 0-.39.025-.44.495-.906.277-.271.538-.568.588-.653.084-.16.076-.16-.353-.017-.713.255-.814.22-.461-.16.26-.272.57-.763.57-.907 0-.026-.125.017-.268.093a4.684 4.684 0 0 1-.739.288l-.453.144-.411-.28c-.227-.152-.546-.322-.714-.372-.428-.12-1.082-.102-1.469.033-1.049.382-1.712 1.365-1.636 2.441z" clip-rule="evenodd"/></svg>