<svg width="21" height="20" viewBox="0 0 21 20" fill="none" xmlns="http://www.w3.org/2000/svg">
<path d="M11.6749 9.9995L15.2583 6.4245C15.4152 6.26758 15.5034 6.05475 15.5034 5.83284C15.5034 5.61092 15.4152 5.39809 15.2583 5.24117C15.1014 5.08425 14.8885 4.99609 14.6666 4.99609C14.4447 4.99609 14.2319 5.08425 14.075 5.24117L10.4999 8.8245L6.92495 5.24117C6.76803 5.08425 6.5552 4.99609 6.33328 4.99609C6.11136 4.99609 5.89854 5.08425 5.74162 5.24117C5.5847 5.39809 5.49654 5.61092 5.49654 5.83284C5.49654 6.05475 5.5847 6.26758 5.74162 6.4245L9.32495 9.9995L5.74162 13.5745C5.66351 13.652 5.60151 13.7441 5.55921 13.8457C5.5169 13.9472 5.49512 14.0562 5.49512 14.1662C5.49512 14.2762 5.5169 14.3851 5.55921 14.4866C5.60151 14.5882 5.66351 14.6804 5.74162 14.7578C5.81908 14.8359 5.91125 14.8979 6.0128 14.9402C6.11435 14.9826 6.22327 15.0043 6.33328 15.0043C6.44329 15.0043 6.55221 14.9826 6.65376 14.9402C6.75531 14.8979 6.84748 14.8359 6.92495 14.7578L10.4999 11.1745L14.075 14.7578C14.1524 14.8359 14.2446 14.8979 14.3461 14.9402C14.4477 14.9826 14.5566 15.0043 14.6666 15.0043C14.7766 15.0043 14.8855 14.9826 14.9871 14.9402C15.0886 14.8979 15.1808 14.8359 15.2583 14.7578C15.3364 14.6804 15.3984 14.5882 15.4407 14.4866C15.483 14.3851 15.5048 14.2762 15.5048 14.1662C15.5048 14.0562 15.483 13.9472 15.4407 13.8457C15.3984 13.7441 15.3364 13.652 15.2583 13.5745L11.6749 9.9995Z" fill="#33CCCC"/>
</svg>
