 <svg
    width="24"
    height="24"
    viewBox="0 0 24 24"
    fill="none"
    xmlns="http://www.w3.org/2000/svg"
  >
    <path
      d="M7.25367 18C6.93501 18 6.61635 17.8826 6.36478 17.6312C5.87841 17.145 5.87841 16.3402 6.36478 15.854L15.8574 6.36465C16.3438 5.87845 17.1488 5.87845 17.6352 6.36465C18.1216 6.85086 18.1216 7.65561 17.6352 8.14181L8.14256 17.6312C7.90776 17.8826 7.57233 18 7.25367 18Z"
      fill="#B1B1B1"
    />
    <path
      d="M16.7463 18C16.4277 18 16.109 17.8826 15.8574 17.6312L6.36478 8.14181C5.87841 7.65561 5.87841 6.85086 6.36478 6.36465C6.85115 5.87845 7.65618 5.87845 8.14256 6.36465L17.6352 15.854C18.1216 16.3402 18.1216 17.145 17.6352 17.6312C17.3836 17.8826 17.065 18 16.7463 18Z"
      fill="#B1B1B1"
    />
  </svg>