<svg width="32" height="32" viewBox="0 0 32 32" fill="none" xmlns="http://www.w3.org/2000/svg">
<path d="M15.9999 13.4167V28.9167M9.54158 21.1667C8.26931 21.1681 7.04124 20.7001 6.09266 19.8522C5.14408 19.0043 4.54169 17.8363 4.40089 16.5718C4.26009 15.3074 4.59079 14.0354 5.32963 12.9997C6.06847 11.9639 7.16349 11.2372 8.40491 10.9587C8.04573 9.28351 8.36671 7.53426 9.29726 6.09575C10.2278 4.65724 11.6917 3.6473 13.3669 3.28812C15.042 2.92893 16.7913 3.24992 18.2298 4.18046C19.6683 5.11101 20.6782 6.57488 21.0374 8.25006H21.1666C22.7682 8.24845 24.3133 8.842 25.5018 9.9155C26.6904 10.989 27.4377 12.4658 27.5987 14.0593C27.7597 15.6528 27.3228 17.2493 26.3729 18.5388C25.423 19.8283 24.0278 20.7188 22.4582 21.0376L9.54158 21.1667ZM19.8749 17.2917L15.9999 13.4167L19.8749 17.2917ZM15.9999 13.4167L12.1249 17.2917L15.9999 13.4167Z" stroke="white" stroke-width="2" stroke-linecap="round" stroke-linejoin="round"/>
</svg>
