<svg xmlns="http://www.w3.org/2000/svg" width="20" height="20" fill="currentColor" viewBox="0 0 20 20"><path d="M5.833 8.958H4.167c-2.017 0-3.125-1.108-3.125-3.125V4.167c0-2.017 1.108-3.125 3.125-3.125h1.666c2.017 0 3.125 1.108 3.125 3.125v1.666c0 2.017-1.108 3.125-3.125 3.125zM4.167 2.292c-1.317 0-1.875.558-1.875 1.875v1.666c0 1.317.558 1.875 1.875 1.875h1.666c1.317 0 1.875-.558 1.875-1.875V4.167c0-1.317-.558-1.875-1.875-1.875H4.167zm11.666 6.666h-1.666c-2.017 0-3.125-1.108-3.125-3.125V4.167c0-2.017 1.108-3.125 3.125-3.125h1.666c2.017 0 3.125 1.108 3.125 3.125v1.666c0 2.017-1.108 3.125-3.125 3.125zm-1.666-6.666c-1.317 0-1.875.558-1.875 1.875v1.666c0 1.317.558 1.875 1.875 1.875h1.666c1.317 0 1.875-.558 1.875-1.875V4.167c0-1.317-.558-1.875-1.875-1.875h-1.666zm1.666 16.666h-1.666c-2.017 0-3.125-1.108-3.125-3.125v-1.666c0-2.017 1.108-3.125 3.125-3.125h1.666c2.017 0 3.125 1.108 3.125 3.125v1.666c0 2.017-1.108 3.125-3.125 3.125zm-1.666-6.666c-1.317 0-1.875.558-1.875 1.875v1.666c0 1.317.558 1.875 1.875 1.875h1.666c1.317 0 1.875-.558 1.875-1.875v-1.666c0-1.317-.558-1.875-1.875-1.875h-1.666zm-8.334 6.666H4.167c-2.017 0-3.125-1.108-3.125-3.125v-1.666c0-2.017 1.108-3.125 3.125-3.125h1.666c2.017 0 3.125 1.108 3.125 3.125v1.666c0 2.017-1.108 3.125-3.125 3.125zm-1.666-6.666c-1.317 0-1.875.558-1.875 1.875v1.666c0 1.317.558 1.875 1.875 1.875h1.666c1.317 0 1.875-.558 1.875-1.875v-1.666c0-1.317-.558-1.875-1.875-1.875H4.167z"/></svg>