<svg xmlns="http://www.w3.org/2000/svg" width="249" height="272" fill="none" viewBox="0 0 249 272"><g clip-path="url(#clip0_205_2005)"><path fill="#3CC" d="M172.709 55.183c-17.191-2.74-36.769-4.203-57.157-4.203-18.66 0-36.636 1.223-52.725 3.529A54.86 54.86 0 0 1 79.617 15.9 54.975 54.975 0 0 1 118.1.514a54.975 54.975 0 0 1 38.294 15.854 54.861 54.861 0 0 1 16.307 38.07c.003.25.007.497.007.744z"/><path fill="#fff" d="M124.974.494a55.022 55.022 0 0 0-22.784 1.713 54.982 54.982 0 0 0-20.117 10.82 54.912 54.912 0 0 0-13.976 18.055 54.857 54.857 0 0 0-5.436 22.913c4.78-.685 9.73-1.272 14.811-1.762a54.865 54.865 0 0 1 14.39-34.446A54.972 54.972 0 0 1 124.973.494z" opacity=".1"/><path fill="#7562BD" d="M196.745 59.537a221.525 221.525 0 0 0-24.043-5.098 348.247 348.247 0 0 0-40.099-3.85 418.42 418.42 0 0 0-30.61-.125c-13.1.387-26.169 1.49-39.147 3.304a230.429 230.429 0 0 0-28.487 5.769C12.525 65.567.5 73.649.5 82.291c0 8.642 12.025 16.724 33.86 22.754 15.354 4.244 34.286 7.135 54.914 8.461 8.515.553 17.317.833 26.278.833 8.99 0 17.822-.284 26.362-.836 18.774-1.212 36.142-3.721 50.678-7.368.078-.022.152-.04.229-.059.981-.243 1.947-.497 2.902-.751.343-.096.682-.188 1.022-.28a.3.3 0 0 1 .058-.018c.325-.089.646-.181.967-.269.641-.184 1.276-.365 1.899-.553l.081-.022a213.79 213.79 0 0 0 1.6-.486c.432-.137.86-.269 1.284-.405.309-.1.616-.199.918-.299.221-.073.439-.143.653-.217.291-.096.582-.195.87-.295.121-.04.243-.081.361-.125.277-.092.546-.188.815-.284.291-.103.583-.21.87-.313a46.22 46.22 0 0 0 1.309-.486c.542-.203 1.074-.413 1.597-.619.262-.107.524-.21.782-.317a93.33 93.33 0 0 0 1.98-.836c.192-.088.387-.173.575-.254l.428-.195a61.69 61.69 0 0 0 1.409-.656 57.378 57.378 0 0 0 3.883-2.033c7.541-4.314 11.52-9.099 11.52-14.072 0-8.642-12.025-16.724-33.859-22.754zm-.2 44.801c-15.373 4.247-34.356 7.139-55.04 8.454-8.411.534-17.107.81-25.953.81a407.33 407.33 0 0 1-25.868-.807c-20.717-1.311-39.73-4.203-55.126-8.457C13.071 98.4 1.238 90.572 1.238 82.291c0-.732.092-1.46.272-2.17 1.881-7.47 13.449-14.462 33.048-19.877a230.252 230.252 0 0 1 28.27-5.735 360.297 360.297 0 0 1 39.382-3.316 421.297 421.297 0 0 1 30.168.122 347.482 347.482 0 0 1 40.331 3.868 220.986 220.986 0 0 1 23.836 5.061c19.596 5.415 31.16 12.403 33.045 19.87.183.711.276 1.443.276 2.177 0 8.28-11.833 16.109-33.321 22.047z"/><path fill="#7562BD" d="M230.394 82.626c0 4.922-4.061 9.578-11.31 13.737a60.23 60.23 0 01-4.986 2.549 7.507 7.507 0 01-.306.14l-.428.195c-.188.08-.383.166-.575.254a93.33 93.33 0 01-1.98.836c-.258.107-.52.21-.782.317-.523.206-1.055.416-1.597.619a46.22 46.22 0 01-1.309.486c-.287.103-.579.21-.87.313-.269.096-.538.192-.815.284-.118.044-.24.085-.361.125-.288.1-.579.199-.871.295-.213.074-.431.144-.652.217-.303.1-.609.199-.919.299-.424.136-.851.268-1.283.405-.527.162-1.058.324-1.6.486l-.081.022c-.623.188-1.258.368-1.899.553-.321.088-.642.18-.967.269a.3.3 0 00-.058.018c-.34.092-.679.184-1.022.28-.951.25-1.921.505-2.902.751-.077.019-.151.037-.229.059-14.142 3.529-31.491 6.101-50.693 7.342a408.91 408.91 0 01-26.189.829 406.69 406.69 0 01-26.41-.844c-50.608-3.297-88.273-15.85-88.273-30.836a9.227 9.227 0 01.413-2.689c.022.063.044.122.07.184 5.262 13.807 42.606 24.965 91.061 27.687 7.423.42 15.112.637 22.981.637 7.902 0 15.62-.221 23.073-.641 48.414-2.733 85.721-13.895 90.965-27.69.088-.221.166-.442.232-.663a9.326 9.326 0 01.572 3.175zM34.304 78.661c-6.137 0-12.66-1.319-12.66-3.763 0-2.445 6.523-3.764 12.66-3.764 6.137 0 12.66 1.319 12.66 3.764 0 2.444-6.523 3.763-12.66 3.763zm0-6.79c-7.026 0-11.922 1.595-11.922 3.027 0 1.431 4.896 3.026 11.922 3.026 7.026 0 11.922-1.595 11.922-3.026 0-1.432-4.896-3.027-11.922-3.027z"/><path fill="#7562BD" d="M60.485 95.974c-6.137 0-12.66-1.319-12.66-3.763 0-2.445 6.523-3.764 12.66-3.764 6.137 0 12.66 1.32 12.66 3.764s-6.523 3.763-12.66 3.763zm0-6.79c-7.026 0-11.922 1.595-11.922 3.027 0 1.431 4.896 3.027 11.922 3.027 7.026 0 11.922-1.596 11.922-3.027 0-1.432-4.896-3.027-11.922-3.027zM196.556 78.661c-6.137 0-12.66-1.319-12.66-3.763 0-2.445 6.523-3.764 12.66-3.764 6.137 0 12.66 1.319 12.66 3.764 0 2.444-6.523 3.763-12.66 3.763zm0-6.79c-7.026 0-11.922 1.595-11.922 3.027 0 1.431 4.896 3.026 11.922 3.026 7.026 0 11.922-1.595 11.922-3.026 0-1.432-4.896-3.027-11.922-3.027zM170.374 95.974c-6.137 0-12.659-1.319-12.659-3.763 0-2.445 6.522-3.764 12.659-3.764 6.138 0 12.66 1.32 12.66 3.764s-6.522 3.763-12.66 3.763zm0-6.79c-7.025 0-11.922 1.595-11.922 3.027 0 1.431 4.897 3.027 11.922 3.027 7.026 0 11.923-1.596 11.923-3.027 0-1.432-4.897-3.027-11.923-3.027zM115.43 104.078c-6.137 0-12.66-1.319-12.66-3.763 0-2.445 6.523-3.764 12.66-3.764 6.137 0 12.66 1.32 12.66 3.764s-6.523 3.763-12.66 3.763zm0-6.79c-7.026 0-11.922 1.595-11.922 3.027 0 1.431 4.896 3.027 11.922 3.027 7.026 0 11.922-1.596 11.922-3.027 0-1.432-4.896-3.027-11.922-3.027zM124.763 181.501c8.556 0 15.492-6.929 15.492-15.476 0-8.548-6.936-15.476-15.492-15.476-8.557 0-15.493 6.928-15.493 15.476 0 8.547 6.936 15.476 15.493 15.476z"/><path fill="#7562BD" d="M118.871 176.192l-7.539 3.772 2.107 4.204 7.54-3.772-2.108-4.204z"/><path fill="#7562BD" d="M114.433 183.742c.447-.678-.656-2.193-2.465-3.384-1.808-1.191-3.637-1.607-4.084-.93-.447.678.656 2.192 2.465 3.383 1.808 1.192 3.637 1.608 4.084.931zM130.654 176.192l-2.108 4.204 7.54 3.772 2.108-4.204-7.54-3.772z"/><path fill="#7562BD" d="M139.176 182.811c1.808-1.191 2.912-2.705 2.465-3.383-.447-.677-2.276-.261-4.084.93-1.809 1.191-2.912 2.706-2.465 3.384.447.677 2.276.261 4.084-.931z"/><path fill="#fff" d="M123.678 167.528a5.292 5.292 0 0 0 5.295-5.289 5.292 5.292 0 0 0-5.295-5.289 5.292 5.292 0 0 0-5.295 5.289 5.292 5.292 0 0 0 5.295 5.289z"/><path fill="#7562BD" d="M124.966 161.225a1.762 1.762 0 0 0-.009-2.492 1.765 1.765 0 0 0-2.494-.008 1.758 1.758 0 0 0 .009 2.491 1.764 1.764 0 0 0 2.494.009z"/><path fill="#3CC" d="M136.984 149.188c.233-5.729-4.71-10.582-11.041-10.839-6.331-.257-11.652 4.18-11.885 9.909-.233 5.73 4.168 7.031 10.499 7.288 6.33.257 12.194-.628 12.427-6.358z"/><path fill="#7562BD" d="M145.914 174.128c1.019-.874-.414-4.211-3.201-7.453-2.786-3.243-5.871-5.163-6.89-4.289-1.019.874.414 4.211 3.2 7.453 2.787 3.243 5.872 5.163 6.891 4.289zM110.545 169.839c2.787-3.242 4.22-6.579 3.201-7.453-1.019-.874-4.104 1.046-6.891 4.289-2.787 3.242-4.22 6.579-3.201 7.453 1.019.874 4.105-1.046 6.891-4.289z"/><path fill="#fff" d="M129.018 172.123a3.528 3.528 0 0 1-2.841 4.101 3.532 3.532 0 0 1-4.105-2.837l-.001-.007c-.348-1.917 1.136-2.595 3.054-2.942s3.545-.231 3.893 1.685z"/><path fill="#B1B1B1" d="M98.59 182.487a.739.739 0 01-.738-.737v-43.467a.735.735 0 01.737-.737.739.739 0 01.738.737v43.467a.737.737 0 01-.738.737zM87.526 221.534a.739.739 0 01-.737-.737v-31.68a.739.739 0 011.475 0v31.68a.737.737 0 01-.738.737zM115.921 195.38a.739.739 0 01-.738-.737v-43.467a.736.736 0 011.475 0v43.467a.738.738 0 01-.737.737zM105.227 226.691a.74.74 0 01-.738-.737v-17.681a.736.736 0 011.475 0v17.681a.734.734 0 01-.737.737zM120.346 136.073a.739.739 0 01-.738-.737v-17.682a.738.738 0 011.475 0v17.682a.738.738 0 01-.737.737zM83.47 143.808a.735.735 0 01-.737-.736V125.39a.737.737 0 011.475 0v17.682a.735.735 0 01-.738.736zM147.634 145.65a.739.739 0 01-.738-.737v-17.681a.736.736 0 011.475 0v17.681a.736.736 0 01-.737.737zM146.159 200.905a.735.735 0 01-.738-.737v-21.365a.738.738 0 011.475 0v21.365a.736.736 0 01-.737.737zM131.408 219.692a.738.738 0 01-.737-.737v-31.679a.736.736 0 011.475 0v31.679a.736.736 0 01-.738.737zM134.358 165.542a.738.738 0 01-.737-.737v-43.467a.736.736 0 011.475 0v43.467a.736.736 0 01-.738.737z"/><path fill="#7562BD" d="M224.775 258.038c1.056-.883-.371-4.322-3.186-7.681-2.816-3.359-5.954-5.366-7.009-4.483-1.056.883.371 4.321 3.186 7.68s5.953 5.367 7.009 4.484z"/><path fill="#7562BD" d="M217.852 254.218c2.774-8.312-1.723-17.297-10.044-20.067-8.321-2.771-17.315 1.721-20.089 10.033-2.773 8.312 1.723 17.297 10.044 20.068 8.321 2.77 17.315-1.722 20.089-10.034z"/><path fill="#7562BD" d="M209.508 261.652h-4.825v8.635h4.825v-8.635zM199.858 261.652h-4.825v8.635h4.825v-8.635z"/><path fill="#7562BD" d="M205.487 271.894c2.22 0 4.021-.675 4.021-1.507 0-.831-1.801-1.506-4.021-1.506-2.221 0-4.021.675-4.021 1.506 0 .832 1.8 1.507 4.021 1.507zM195.837 271.693c2.221 0 4.021-.675 4.021-1.506 0-.832-1.8-1.507-4.021-1.507-2.22 0-4.02.675-4.02 1.507 0 .831 1.8 1.506 4.02 1.506z"/><path fill="#FFCF5C" d="M197.799 229.259c1.418-5.705 7.678-9.062 13.981-7.499 6.304 1.564 10.264 7.456 8.846 13.161-1.418 5.705-6.122 5.723-12.426 4.16-6.304-1.564-11.819-4.117-10.401-9.822z"/><path fill="#7562BD" d="M192.073 245.239c.59-1.243-2.144-3.772-6.107-5.649-3.962-1.877-7.653-2.392-8.243-1.149-.59 1.242 2.144 3.771 6.107 5.649 3.962 1.877 7.653 2.392 8.243 1.149z"/><path fill="#fff" d="M200.411 251.143a5.292 5.292 0 0 0 5.295-5.289c0-2.922-2.37-5.29-5.295-5.29a5.292 5.292 0 0 0-5.295 5.29 5.292 5.292 0 0 0 5.295 5.289z"/><path fill="#7562BD" d="M198.235 245.721a1.764 1.764 0 1 0 0-3.526 1.764 1.764 0 1 0 0 3.526z"/><path fill="#fff" d="M200.366 259.107a2.21 2.21 0 1 0 0-4.42 2.211 2.211 0 0 0-2.213 2.21c0 1.221.991 2.21 2.213 2.21z"/><path fill="#7562BD" d="M248.131 272h-87.026a.37.37 0 1 1 0-.737h87.026a.37.37 0 1 1 0 .737z"/></g><defs><clipPath id="clip0_205_2005"><path fill="#fff" d="M0 0h248v272H0z" transform="translate(.5)"/></clipPath></defs></svg>