<svg xmlns="http://www.w3.org/2000/svg" width="496" height="243" fill="none" viewBox="0 0 496 243"><path fill="#00296B" d="M339.825 117.979h-82.438a17.504 17.504 0 0 0 3.73 3.641h74.978c1.119-.728 2.611-2.185 3.73-3.641zm10.071-17.843c2.238-6.918 3.357-14.2 3.357-21.848l.373-77.924h-35.064l-.373 79.745c0 7.283-1.865 12.745-5.223 16.75-3.357 4.005-8.206 5.826-14.174 5.826-5.969 0-10.818-2.185-14.175-6.19-3.358-4.006-5.223-9.468-5.223-16.75L279.767 0h-35.064l-.373 77.924c0 6.554 1.119 13.837 2.984 22.212 1.119 4.37 2.984 8.739 5.969 12.745h90.271c2.612-4.006 4.85-8.011 6.342-12.745zm-66.772 31.68c6.342 1.092 12.683 1.456 17.905 1.456 9.699 0 17.532-1.456 24.62-4.369 1.119-.364 2.238-1.093 3.357-1.457h-60.43c4.103 1.821 8.953 3.277 14.548 4.37zM95.493 117.979H13.055a17.505 17.505 0 0 0 3.73 3.641h74.978c1.119-.728 2.61-2.185 3.73-3.641zm10.073-17.843c2.238-6.918 3.357-14.2 3.357-21.848l.373-77.924H74.232l-.373 79.745c0 7.283-1.865 12.745-5.223 16.75-3.357 4.005-8.206 5.826-14.174 5.826-5.969 0-10.818-2.185-14.175-6.19-3.358-4.006-5.223-9.468-5.223-16.75V0H.373L0 77.924c0 6.554 1.12 13.837 2.984 22.212 1.12 4.37 2.984 8.739 5.969 12.745h90.271c2.611-4.006 4.85-8.011 6.342-12.745zm-66.772 31.68c6.341 1.092 12.683 1.456 17.905 1.456 9.699 0 17.532-1.456 24.62-4.369 1.119-.364 2.238-1.093 3.357-1.457h-60.43c4.103 1.821 8.953 3.277 14.548 4.37zm180.171-13.837h-86.168c1.119 1.456 2.611 2.548 4.103 3.641h77.962c1.492-.728 2.611-2.185 4.103-3.641zm-72.367 9.831c8.206 4.005 17.905 6.19 29.468 6.19 10.072 0 19.025-1.821 26.858-5.098 1.492-.728 2.611-1.092 4.103-1.82h-61.922c.373.364 1.12.728 1.493.728zm82.065-34.592c0-11.288-3.73-19.663-11.19-25.49-7.461-5.826-16.787-9.831-27.231-12.016l-16.413-3.277c-4.85-.728-8.58-2.549-11.937-4.734-3.357-2.185-5.222-5.462-5.222-9.467 0-4.37 1.492-7.647 4.476-10.196 2.984-2.549 7.087-3.641 11.937-3.641 6.714 0 11.563 1.82 14.548 5.098 2.984 3.277 4.476 6.918 4.476 10.924v.728h34.318v-1.093c0-6.554-1.865-13.108-5.968-19.299-4.104-6.19-10.072-10.923-17.905-14.929C194.718 1.821 185.393 0 174.202 0c-9.699 0-17.905 1.457-25.739 4.734-7.46 2.913-13.429 7.646-17.532 13.473-4.103 5.826-6.341 12.744-6.341 20.755 0 12.38 4.103 21.12 12.309 26.582 8.207 5.462 17.16 9.103 26.485 11.288l16.04 2.913c4.476.728 8.207 2.549 11.191 4.733 2.984 2.55 4.476 5.463 4.476 9.468 0 4.37-1.865 8.011-5.222 10.56-3.357 2.549-8.207 4.005-13.802 4.005-6.715 0-11.937-1.82-15.294-5.462-3.357-3.641-5.222-7.647-5.222-12.38v-1.457h-34.319v1.457c0 7.282 2.239 14.201 6.342 20.755.373.364.373.729.746.729h94.748c3.73-5.098 5.595-11.653 5.595-18.935zm174.948-24.396l20.143 27.31h17.906l20.143-26.946v43.695h33.199L495.375.365H468.89l-36.183 50.614L396.151.365h-27.604l.746 112.516h33.945l.373-44.06zm-34.318 49.157v4.005h33.945v-4.005h-33.945zm125.709 9.103h-33.199v5.826h33.199v-5.826zm-125.709 5.826h33.945v-5.826h-33.945v5.826zm126.082-14.929h-33.572v3.641h33.572v-3.641z"/><path fill="#505050" d="M26.172 233h2.656v-25.762h9.453v-2.422H16.72v2.422h9.453V233zm24.281-25.41c1.035 0 1.895-.84 1.895-1.895 0-1.054-.86-1.894-1.895-1.894a1.9 1.9 0 0 0-1.914 1.894 1.9 1.9 0 0 0 1.914 1.895zM49.144 233h2.579v-21.035h-2.578V233zm15.297 0h2.578v-12.91c0-3.438 2.344-6.172 5.391-6.172 2.91 0 4.824 1.973 4.824 5V233h2.579v-13.34c0-3.262 2.168-5.742 5.41-5.742 3.164 0 4.824 1.836 4.824 5.273V233h2.597v-14.395c0-4.453-2.44-6.992-6.66-6.992-3.027 0-5.488 1.621-6.562 4.141h-.254c-.899-2.52-3.008-4.141-5.957-4.141-2.871 0-5.04 1.543-5.938 4.063h-.254v-3.711h-2.578V233zm49.086.352c4.649 0 7.715-2.54 8.535-5.391l.059-.156h-2.598l-.078.136c-.683 1.641-2.793 3.086-5.859 3.086-4.18 0-6.875-2.949-6.953-7.871h15.801v-1.094c0-6.23-3.477-10.449-9.122-10.449-5.644 0-9.316 4.336-9.316 10.899v.039c0 6.601 3.633 10.801 9.531 10.801zm-.215-19.434c3.614 0 6.211 2.461 6.504 7.129h-13.164c.332-4.551 3.028-7.129 6.66-7.129zM152.168 233h2.598v-18.867h4.922v-2.168h-4.922v-2.637c0-2.441 1.113-3.769 3.535-3.769.605 0 1.191.039 1.582.097v-2.09a11.17 11.17 0 0 0-2.051-.175c-3.672 0-5.664 1.972-5.664 5.879v2.695h-3.496v2.168h3.496V233zm26.137.352c5.879 0 9.57-4.161 9.57-10.86v-.039c0-6.699-3.691-10.84-9.57-10.84-5.879 0-9.551 4.141-9.551 10.84v.039c0 6.699 3.672 10.86 9.551 10.86zm0-2.305c-4.336 0-6.914-3.242-6.914-8.555v-.039c0-5.312 2.578-8.535 6.914-8.535s6.914 3.223 6.914 8.535v.039c0 5.313-2.578 8.555-6.914 8.555zM199.402 233h2.578v-13.125c0-3.398 2.422-5.801 5.704-5.801.8 0 1.484.078 2.246.274v-2.539c-.508-.118-1.211-.196-1.973-.196-2.852 0-4.902 1.407-5.723 3.809h-.254v-3.457h-2.578V233zm39.129-25.41c1.035 0 1.895-.84 1.895-1.895 0-1.054-.86-1.894-1.895-1.894a1.9 1.9 0 0 0-1.914 1.894c0 1.055.86 1.895 1.914 1.895zM237.223 233h2.578v-21.035h-2.578V233zm15.297 0h2.578v-12.5c0-3.965 2.519-6.582 6.23-6.582 3.652 0 5.469 2.051 5.469 6.055V233h2.578v-13.672c0-4.902-2.676-7.715-7.363-7.715-3.282 0-5.547 1.504-6.66 4.043h-.254v-3.691h-2.578V233zm29.281 0h2.578v-12.5c0-3.965 2.519-6.582 6.23-6.582 3.653 0 5.469 2.051 5.469 6.055V233h2.578v-13.672c0-4.902-2.676-7.715-7.363-7.715-3.281 0-5.547 1.504-6.66 4.043h-.254v-3.691h-2.578V233zm37.777.352c5.879 0 9.57-4.161 9.57-10.86v-.039c0-6.699-3.691-10.84-9.57-10.84-5.879 0-9.551 4.141-9.551 10.84v.039c0 6.699 3.672 10.86 9.551 10.86zm0-2.305c-4.336 0-6.914-3.242-6.914-8.555v-.039c0-5.312 2.578-8.535 6.914-8.535s6.914 3.223 6.914 8.535v.039c0 5.313-2.578 8.555-6.914 8.555zM345.793 233h2.734l7.852-21.035h-2.754l-6.348 18.242h-.234l-6.367-18.242h-2.735L345.793 233zm26.215.352c3.105 0 5.625-1.465 6.875-3.965h.234V233h2.598v-14.375c0-4.434-2.871-7.012-7.793-7.012-4.356 0-7.539 2.149-8.086 5.508l-.02.078h2.598l.02-.039c.546-2.09 2.558-3.242 5.41-3.242 3.398 0 5.273 1.641 5.273 4.727v1.972l-6.562.43c-4.864.332-7.578 2.461-7.578 6.113v.039c0 3.75 2.968 6.153 7.031 6.153zm-4.395-6.192v-.039c0-2.383 1.719-3.73 5.293-3.965l6.211-.429v2.441c0 3.34-2.851 5.918-6.621 5.918-2.832 0-4.883-1.524-4.883-3.926zm33.539 5.977c.625 0 1.211-.059 1.797-.157v-2.226a12.4 12.4 0 0 1-1.504.078c-2.383 0-3.3-1.074-3.3-3.652v-13.047h4.804v-2.168h-4.804v-5.469h-2.676v5.469h-3.379v2.168h3.379v13.633c0 3.828 1.66 5.371 5.683 5.371zm14.614-25.547c1.035 0 1.894-.84 1.894-1.895a1.896 1.896 0 0 0-1.894-1.894 1.9 1.9 0 0 0-1.914 1.894 1.9 1.9 0 0 0 1.914 1.895zM414.457 233h2.578v-21.035h-2.578V233zm23.793.352c5.879 0 9.57-4.161 9.57-10.86v-.039c0-6.699-3.691-10.84-9.57-10.84-5.879 0-9.551 4.141-9.551 10.84v.039c0 6.699 3.672 10.86 9.551 10.86zm0-2.305c-4.336 0-6.914-3.242-6.914-8.555v-.039c0-5.312 2.578-8.535 6.914-8.535s6.914 3.223 6.914 8.535v.039c0 5.313-2.578 8.555-6.914 8.555zM459.348 233h2.578v-12.5c0-3.965 2.519-6.582 6.23-6.582 3.653 0 5.469 2.051 5.469 6.055V233h2.578v-13.672c0-4.902-2.676-7.715-7.363-7.715-3.281 0-5.547 1.504-6.66 4.043h-.254v-3.691h-2.578V233z"/></svg>