<svg width="20" height="20" viewBox="0 0 20 20" fill="none" xmlns="http://www.w3.org/2000/svg">
<g clip-path="url(#clip0_4154_199901)">
<path fill-rule="evenodd" clip-rule="evenodd" d="M7.01519 9.1914H7.6887V7.76918C7.6887 7.00193 8.00283 6.30449 8.50804 5.79895V5.7983C9.01342 5.29293 9.71118 4.97896 10.4788 4.97896C11.246 4.97896 11.9435 5.29293 12.4488 5.7983L12.4495 5.79895C12.9547 6.30433 13.2688 7.00209 13.2688 7.76902V9.19123L13.8055 9.1914C13.9249 9.1914 14.0227 9.28922 14.0227 9.40868V13.9991C14.0227 14.1185 13.9248 14.2163 13.8053 14.2163H7.01519C6.89573 14.2163 6.79774 14.1184 6.79774 13.9991V9.40868C6.79774 9.28922 6.89556 9.1914 7.01519 9.1914ZM2.71519 3.95714C2.42531 4.31636 2.15757 4.69787 1.89145 5.17086C0.916998 6.90345 0.504234 8.87059 0.672367 10.7931C0.836756 12.6709 1.55649 14.5085 2.84931 16.0456C3.31366 16.5977 3.81188 17.0844 4.33565 17.5053C6.14425 18.9595 8.28685 19.6767 10.4237 19.6563C12.5615 19.636 14.6896 18.8777 16.4695 17.3808C16.9886 16.9442 17.4752 16.4486 17.9206 15.8947C18.9616 14.5996 19.6315 13.0806 19.8853 11.4777C20.1346 9.90348 19.9821 8.25031 19.3857 6.65101C18.8182 5.12838 17.9512 3.77257 16.8182 2.7112C15.7382 1.69947 14.4196 0.95435 12.8901 0.584556C12.4111 0.468669 11.9234 0.392985 11.4267 0.360921C10.9283 0.328857 10.4187 0.339599 9.89656 0.39738C9.56925 0.433513 9.33357 0.727786 9.36954 1.0551C9.40568 1.38225 9.69995 1.61809 10.0271 1.58196C10.4801 1.53183 10.9215 1.52239 11.3521 1.55022C11.7841 1.57805 12.2034 1.64267 12.6105 1.7413C13.9298 2.06015 15.0688 2.70388 16.0021 3.57856C17.0011 4.5146 17.7676 5.71481 18.2711 7.06605C18.7939 8.46792 18.9279 9.9152 18.71 11.2912C18.4886 12.6891 17.9031 14.0157 16.9923 15.1485C16.5905 15.6483 16.1588 16.0892 15.7046 16.4712C14.1435 17.7842 12.2815 18.4493 10.4145 18.4672C8.54711 18.4849 6.67079 17.8549 5.08175 16.5775C4.61055 16.1986 4.16686 15.7665 3.75866 15.281C2.63283 13.9424 2.00555 12.3363 1.86167 10.6908C1.71388 9.0021 2.07602 7.27471 2.93134 5.75403C3.18948 5.29504 3.45397 4.92867 3.74726 4.57547L3.83401 6.96742C3.84557 7.29587 4.12129 7.55271 4.44958 7.54099C4.77787 7.52927 5.03487 7.25372 5.02315 6.92543L4.8848 3.11371C4.87325 2.78509 4.59753 2.52842 4.26924 2.53998C4.24873 2.54079 4.22855 2.54258 4.20869 2.54518V2.5447L0.513837 3.06374C0.188151 3.10883 -0.0393903 3.40961 0.00569466 3.7353C0.0506169 4.06115 0.351401 4.28869 0.67725 4.2436L2.71519 3.95714ZM8.77269 9.1914H12.1847V7.75356C12.1847 7.28432 11.9926 6.85772 11.6839 6.54863L11.6835 6.5488C11.3744 6.23971 10.9477 6.04749 10.4788 6.04749C10.0095 6.04749 9.58292 6.23955 9.27368 6.54847C8.96475 6.85756 8.77286 7.28432 8.77286 7.75356V9.1914H8.77269ZM10.4924 11.7031L10.8368 13.2923L9.89298 13.2962L10.1698 11.6857C9.91203 11.6029 9.72501 11.3613 9.72501 11.0759C9.72501 10.7225 10.0115 10.436 10.365 10.436C10.7182 10.436 11.0048 10.7225 11.0048 11.0759C11.0046 11.3858 10.7848 11.6442 10.4924 11.7031Z" fill="black"/>
</g>
<defs>
<clipPath id="clip0_4154_199901">
<rect width="20" height="19.3136" fill="white" transform="translate(0 0.343182)"/>
</clipPath>
</defs>
</svg>
