<svg width="16" height="16" viewBox="0 0 16 16" fill="none" xmlns="http://www.w3.org/2000/svg">
<path d="M12.7604 8.62398C12.7844 8.42398 12.8004 8.21598 12.8004 7.99998C12.8004 7.78398 12.7844 7.57598 12.7524 7.37598L14.1044 6.31998C14.2244 6.22398 14.2564 6.04798 14.1844 5.91198L12.9044 3.69598C12.8244 3.55198 12.6564 3.50398 12.5124 3.55198L10.9204 4.19198C10.5844 3.93598 10.2324 3.72798 9.8404 3.56798L9.6004 1.87198C9.5764 1.71198 9.4404 1.59998 9.2804 1.59998H6.7204C6.5604 1.59998 6.4324 1.71198 6.4084 1.87198L6.1684 3.56798C5.7764 3.72798 5.4164 3.94398 5.0884 4.19198L3.4964 3.55198C3.3524 3.49598 3.1844 3.55198 3.1044 3.69598L1.8244 5.91198C1.7444 6.05598 1.7764 6.22398 1.9044 6.31998L3.2564 7.37598C3.2244 7.57598 3.2004 7.79198 3.2004 7.99998C3.2004 8.20798 3.2164 8.42398 3.2484 8.62398L1.8964 9.67998C1.7764 9.77598 1.7444 9.95198 1.8164 10.088L3.0964 12.304C3.1764 12.448 3.3444 12.496 3.4884 12.448L5.0804 11.808C5.4164 12.064 5.7684 12.272 6.1604 12.432L6.4004 14.128C6.4324 14.288 6.5604 14.4 6.7204 14.4H9.2804C9.4404 14.4 9.5764 14.288 9.5924 14.128L9.8324 12.432C10.2244 12.272 10.5844 12.056 10.9124 11.808L12.5044 12.448C12.6484 12.504 12.8164 12.448 12.8964 12.304L14.1764 10.088C14.2564 9.94398 14.2244 9.77598 14.0964 9.67998L12.7604 8.62398ZM8.0004 10.4C6.6804 10.4 5.6004 9.31998 5.6004 7.99998C5.6004 6.67998 6.6804 5.59998 8.0004 5.59998C9.3204 5.59998 10.4004 6.67998 10.4004 7.99998C10.4004 9.31998 9.3204 10.4 8.0004 10.4Z" fill="black"/>
</svg>
