<svg width="16" height="16" viewBox="0 0 16 16" fill="none" xmlns="http://www.w3.org/2000/svg">
<path d="M14.0466 3.48667C12.9733 3.38 11.8999 3.3 10.8199 3.24V3.23333L10.6733 2.36667C10.5733 1.75333 10.4266 0.833333 8.86661 0.833333H7.11994C5.56661 0.833333 5.41994 1.71333 5.31328 2.36L5.17328 3.21333C4.55328 3.25333 3.93328 3.29333 3.31328 3.35333L1.95328 3.48667C1.67328 3.51333 1.47328 3.76 1.49994 4.03333C1.52661 4.30667 1.76661 4.50667 2.04661 4.48L3.40661 4.34667C6.89994 4 10.4199 4.13333 13.9533 4.48667C13.9733 4.48667 13.9866 4.48667 14.0066 4.48667C14.2599 4.48667 14.4799 4.29333 14.5066 4.03333C14.5266 3.76 14.3266 3.51333 14.0466 3.48667Z" fill="#1B1B1B"/>
<path d="M12.8202 5.42667C12.6602 5.26 12.4402 5.16667 12.2135 5.16667H3.78683C3.56016 5.16667 3.33349 5.26 3.18016 5.42667C3.02683 5.59333 2.94016 5.82 2.95349 6.05333L3.36683 12.8933C3.44016 13.9067 3.53349 15.1733 5.86016 15.1733H10.1402C12.4668 15.1733 12.5602 13.9133 12.6335 12.8933L13.0468 6.06C13.0602 5.82 12.9735 5.59333 12.8202 5.42667ZM9.10682 11.8333H6.88683C6.61349 11.8333 6.38683 11.6067 6.38683 11.3333C6.38683 11.06 6.61349 10.8333 6.88683 10.8333H9.10682C9.38016 10.8333 9.60682 11.06 9.60682 11.3333C9.60682 11.6067 9.38016 11.8333 9.10682 11.8333ZM9.66683 9.16667H6.33349C6.06016 9.16667 5.83349 8.94 5.83349 8.66667C5.83349 8.39333 6.06016 8.16667 6.33349 8.16667H9.66683C9.94016 8.16667 10.1668 8.39333 10.1668 8.66667C10.1668 8.94 9.94016 9.16667 9.66683 9.16667Z" fill="#1B1B1B"/>
</svg>
