<svg width="16" height="16" viewBox="0 0 16 16" fill="none" xmlns="http://www.w3.org/2000/svg">
<path d="M8 15C4.143 15 1 11.857 1 8C1 4.143 4.143 1 8 1C11.857 1 15 4.143 15 8C15 11.857 11.857 15 8 15ZM7.475 10.8C7.475 11.087 7.713 11.325 8 11.325C8.287 11.325 8.525 11.087 8.525 10.8V7.3C8.525 7.013 8.287 6.775 8 6.775C7.713 6.775 7.475 7.013 7.475 7.3V10.8ZM8.644 4.934C8.609 4.843 8.56 4.773 8.497 4.703C8.427 4.64 8.35 4.591 8.266 4.556C8.182 4.521 8.091 4.5 8 4.5C7.909 4.5 7.818 4.521 7.734 4.556C7.65 4.591 7.573 4.64 7.503 4.703C7.44 4.773 7.391 4.843 7.356 4.934C7.321 5.018 7.3 5.109 7.3 5.2C7.3 5.291 7.321 5.382 7.356 5.466C7.391 5.55 7.44 5.627 7.503 5.697C7.573 5.76 7.65 5.809 7.734 5.844C7.902 5.914 8.098 5.914 8.266 5.844C8.35 5.809 8.427 5.76 8.497 5.697C8.56 5.627 8.609 5.55 8.644 5.466C8.679 5.382 8.7 5.291 8.7 5.2C8.7 5.109 8.679 5.018 8.644 4.934Z" fill="#1B1B1B"/>
</svg>
