<svg width="20" height="20" viewBox="0 0 20 20" fill="none" xmlns="http://www.w3.org/2000/svg">
<path d="M0.90625 16.25C1.30177 16.25 1.62864 16.5439 1.68037 16.9252L1.6875 17.0313V18.5938C1.6875 19.0252 1.33772 19.375 0.90625 19.375C0.510734 19.375 0.183864 19.0811 0.132132 18.6998L0.125 18.5938V17.0313C0.125 16.5998 0.474778 16.25 0.90625 16.25ZM5.07292 13.1263C5.46843 13.1263 5.7953 13.4202 5.84703 13.8016L5.85417 13.9076V18.5938C5.85417 19.0252 5.50439 19.375 5.07292 19.375C4.6774 19.375 4.35053 19.0811 4.2988 18.6998L4.29167 18.5938V13.9076C4.29167 13.4761 4.64144 13.1263 5.07292 13.1263ZM9.23958 10C9.6351 10 9.96197 10.2939 10.0137 10.6752L10.0208 10.7813V18.5938C10.0208 19.0252 9.67106 19.375 9.23958 19.375C8.84407 19.375 8.5172 19.0811 8.46546 18.6998L8.45833 18.5938V10.7813C8.45833 10.3498 8.80811 10 9.23958 10ZM13.4062 6.875C13.8018 6.875 14.1286 7.16891 14.1804 7.55024L14.1875 7.65625V18.5938C14.1875 19.0252 13.8377 19.375 13.4062 19.375C13.0107 19.375 12.6839 19.0811 12.6321 18.6998L12.625 18.5938V7.65625C12.625 7.22478 12.9748 6.875 13.4062 6.875ZM17.5322 3.75044C17.9129 3.74674 18.2303 4.03748 18.2836 4.41829L18.2915 4.52422L18.3498 18.5861C18.3539 19.0176 18.0204 19.3707 17.6051 19.375C17.2244 19.3787 16.907 19.088 16.8536 18.7072L16.8458 18.6013L16.7874 4.53938C16.7834 4.10793 17.1168 3.75477 17.5322 3.75044ZM8.12689 0.625C8.84826 0.625 9.41226 0.796985 9.8189 1.14096C10.2255 1.48493 10.4665 1.98557 10.5417 2.64288H9.32175C9.26604 2.29473 9.1428 2.03988 8.95201 1.87834C8.76122 1.7168 8.49872 1.63603 8.16449 1.63603C7.73836 1.63603 7.41388 1.79618 7.19106 2.11648C6.96825 2.43678 6.85545 2.91304 6.85266 3.54529V3.93382C6.85266 4.57164 6.97382 5.05347 7.21613 5.37935C7.45845 5.70522 7.81356 5.86815 8.28147 5.86815C8.75217 5.86815 9.08779 5.76788 9.28832 5.56735V4.51872H8.14778V3.59542H10.5417V6.02273C10.3161 6.29289 9.99716 6.50248 9.58495 6.65149C9.17274 6.8005 8.71597 6.875 8.21463 6.875C7.68822 6.875 7.22658 6.76011 6.82968 6.53033C6.43279 6.30055 6.12642 5.96703 5.91057 5.52975C5.69471 5.09247 5.584 4.5786 5.57843 3.98814V3.57453C5.57843 2.96735 5.68079 2.44165 5.8855 1.99741C6.09021 1.55317 6.38544 1.21338 6.77119 0.978025C7.15695 0.742674 7.60884 0.625 8.12689 0.625ZM3.88085 0.708556V4.50201H4.57019V5.47543H3.88085V6.79144H2.67346V5.47543H0.179312L0.125 4.71507L2.66093 0.708556H3.88085ZM2.67346 2.35461L2.59408 2.49248L1.32821 4.50201H2.67346V2.35461Z" fill="#212121"/>
</svg>
