<svg width="25" height="18" viewBox="0 0 25 18" fill="none" xmlns="http://www.w3.org/2000/svg">
<path d="M23.0469 17.5938H20.7031C20.3923 17.5938 20.0943 17.4703 19.8745 17.2505C19.6547 17.0307 19.5312 16.7327 19.5312 16.4219V1.57812C19.5312 1.26732 19.6547 0.969253 19.8745 0.749484C20.0943 0.529715 20.3923 0.40625 20.7031 0.40625H23.0469C23.3577 0.40625 23.6557 0.529715 23.8755 0.749484C24.0953 0.969253 24.2188 1.26732 24.2188 1.57812V16.4219C24.2188 16.7327 24.0953 17.0307 23.8755 17.2505C23.6557 17.4703 23.3577 17.5938 23.0469 17.5938ZM16.7969 17.5938H14.4531C14.1423 17.5938 13.8443 17.4703 13.6245 17.2505C13.4047 17.0307 13.2812 16.7327 13.2812 16.4219V5.48438C13.2812 5.17357 13.4047 4.8755 13.6245 4.65573C13.8443 4.43597 14.1423 4.3125 14.4531 4.3125H16.7969C17.1077 4.3125 17.4057 4.43597 17.6255 4.65573C17.8453 4.8755 17.9688 5.17357 17.9688 5.48438V16.4219C17.9688 16.7327 17.8453 17.0307 17.6255 17.2505C17.4057 17.4703 17.1077 17.5938 16.7969 17.5938ZM10.5469 17.5938H8.20312C7.89232 17.5938 7.59425 17.4703 7.37448 17.2505C7.15472 17.0307 7.03125 16.7327 7.03125 16.4219V8.60938C7.03125 8.29857 7.15472 8.0005 7.37448 7.78073C7.59425 7.56097 7.89232 7.4375 8.20312 7.4375H10.5469C10.8577 7.4375 11.1557 7.56097 11.3755 7.78073C11.5953 8.0005 11.7188 8.29857 11.7188 8.60938V16.4219C11.7188 16.7327 11.5953 17.0307 11.3755 17.2505C11.1557 17.4703 10.8577 17.5938 10.5469 17.5938ZM4.29688 17.5938H1.95312C1.64232 17.5938 1.34425 17.4703 1.12448 17.2505C0.904715 17.0307 0.78125 16.7327 0.78125 16.4219V11.7344C0.78125 11.4236 0.904715 11.1255 1.12448 10.9057C1.34425 10.686 1.64232 10.5625 1.95312 10.5625H4.29688C4.60768 10.5625 4.90575 10.686 5.12552 10.9057C5.34528 11.1255 5.46875 11.4236 5.46875 11.7344V16.4219C5.46875 16.7327 5.34528 17.0307 5.12552 17.2505C4.90575 17.4703 4.60768 17.5938 4.29688 17.5938Z" fill="#008000"/>
</svg>
