<svg width="30" height="24" viewBox="0 0 30 24" fill="none" xmlns="http://www.w3.org/2000/svg">
<path d="M17.5781 8.37V7.41C17.5781 4.43 15.1523 3.29 12.1992 4.87L8.77734 6.7C8.40234 6.89 7.96875 7 7.53516 7H5.85938C3.51563 7 2.34375 8 2.34375 10V14C2.34375 16 3.51563 17 5.85938 17H8.20313" stroke="white" stroke-width="1.5" stroke-linecap="round" stroke-linejoin="round"/>
<path d="M12.1992 19.13C15.1523 20.71 17.5781 19.56 17.5781 16.59V12.95" stroke="white" stroke-width="1.5" stroke-linecap="round" stroke-linejoin="round"/>
<path d="M22.043 9.41998C23.0977 11.57 22.7813 14.08 21.0938 16" stroke="white" stroke-width="1.5" stroke-linecap="round" stroke-linejoin="round"/>
<path d="M24.7852 7.79999C26.5078 11.29 25.9922 15.37 23.2383 18.5" stroke="white" stroke-width="1.5" stroke-linecap="round" stroke-linejoin="round"/>
<path d="M25.7812 2L2.34375 22" stroke="white" stroke-width="1.5" stroke-linecap="round" stroke-linejoin="round"/>
</svg>
