<svg width="31" height="26" viewBox="0 0 31 26" fill="none" xmlns="http://www.w3.org/2000/svg">
<path d="M3.16675 8.91663V14.0833C3.16675 16.6666 4.41675 17.9583 6.91675 17.9583H8.70425C9.16675 17.9583 9.62925 18.1004 10.0292 18.3458L13.6792 20.7095C16.8292 22.7504 19.4167 21.265 19.4167 17.4287V5.57121C19.4167 1.72204 16.8292 0.249545 13.6792 2.29038L10.0292 4.65413C9.62925 4.89955 9.16675 5.04163 8.70425 5.04163H6.91675C4.41675 5.04163 3.16675 6.3333 3.16675 8.91663Z" stroke="white" stroke-width="1.5"/>
<path d="M23.1667 6.33334C25.3917 9.39459 25.3917 13.6054 23.1667 16.6667" stroke="white" stroke-width="1.5" stroke-linecap="round" stroke-linejoin="round"/>
<path d="M25.4543 3.10416C29.0668 8.07707 29.0668 14.9229 25.4543 19.8958" stroke="white" stroke-width="1.5" stroke-linecap="round" stroke-linejoin="round"/>
</svg>
