<svg xmlns="http://www.w3.org/2000/svg" width="20" height="20" fill="none" viewBox="0 0 20 20"><path fill="#202333" d="M15.783 7.248c.166 0 .316.072.436.195.11.13.166.293.15.465 0 .056-.444 5.673-.697 8.037-.16 1.45-1.095 2.332-2.498 2.356a140.96 140.96 0 0 1-3.17.032c-1.103 0-2.181-.008-3.227-.032-1.356-.033-2.292-.93-2.443-2.356-.261-2.373-.697-7.98-.705-8.037a.659.659 0 0 1 .159-.465.589.589 0 0 1 .436-.195h11.559zM11.72 1.667c.736 0 1.394.514 1.585 1.247l.136.608c.11.496.54.847 1.034.847h2.43c.324 0 .594.27.594.612v.316c0 .335-.27.612-.594.612H3.095a.608.608 0 0 1-.595-.612v-.316c0-.343.27-.612.595-.612h2.43c.493 0 .923-.35 1.034-.846l.127-.568c.198-.774.849-1.288 1.593-1.288h3.442z"/></svg>