<svg xmlns="http://www.w3.org/2000/svg" width="20" height="20" fill="none" viewBox="0 0 20 20"><path fill="#202333" d="M17.5 18.333h-15a.63.63 0 0 1-.625-.625.63.63 0 0 1 .625-.625h15a.63.63 0 0 1 .625.625.63.63 0 0 1-.625.625zM15.85 2.9c-1.617-1.617-3.2-1.658-4.858 0L9.983 3.908a.347.347 0 0 0-.083.334 6.774 6.774 0 0 0 4.608 4.608.334.334 0 0 0 .342-.083l1-1.009c.825-.816 1.225-1.608 1.225-2.408.008-.825-.392-1.625-1.225-2.45zm-2.842 6.708a9.267 9.267 0 0 1-.7-.366 7.342 7.342 0 0 1-.533-.35 5.036 5.036 0 0 1-.467-.359 1.017 1.017 0 0 1-.141-.125 7.048 7.048 0 0 1-.859-.866c-.025-.017-.066-.075-.125-.15-.083-.1-.225-.267-.35-.459a4.575 4.575 0 0 1-.325-.491c-.133-.225-.25-.45-.366-.684-.153-.327-.583-.425-.84-.17l-4.685 4.687a1.003 1.003 0 0 0-.234.458l-.45 3.192c-.083.567.075 1.1.425 1.458.3.292.717.45 1.167.45.1 0 .2-.008.3-.025l3.2-.45a.928.928 0 0 0 .458-.233l4.694-4.694c.25-.25.157-.682-.169-.823z"/></svg>