<svg xmlns="http://www.w3.org/2000/svg" width="24" height="24" fill="none" viewBox="0 0 24 24"><path fill="#B8B8B8" fill-rule="evenodd" d="M20.417 3.22a.75.75 0 0 1 0 1.06L4.643 20.055a.744.744 0 0 1-1.06 0 .749.749 0 0 1 0-1.06l1.972-1.971c-1.413-1.293-2.613-3.036-3.493-5.089a.745.745 0 0 1 0-.593C3.082 8.977 4.52 7.02 6.22 5.683c3.292-2.606 7.621-2.744 11.048-.375l2.088-2.088a.749.749 0 0 1 1.06 0zm-.37 4.82a16.18 16.18 0 0 1 1.891 3.299.742.742 0 0 1 0 .595C19.842 16.79 16.128 19.69 12 19.69a8.77 8.77 0 0 1-2.769-.451.75.75 0 0 1 .474-1.424A7.245 7.245 0 0 0 12 18.19c3.428 0 6.561-2.442 8.43-6.553a14.5 14.5 0 0 0-1.58-2.694.75.75 0 0 1 1.197-.902zM7.15 6.862C5.713 7.99 4.481 9.637 3.57 11.639c.794 1.752 1.836 3.23 3.047 4.322l2.138-2.138a3.87 3.87 0 0 1-.67-2.184A3.92 3.92 0 0 1 12 7.722a3.92 3.92 0 0 1 2.187.669l2.001-2.002c-2.853-1.844-6.325-1.676-9.038.472zm8.088 4.6a.75.75 0 0 1 .607.872 3.92 3.92 0 0 1-3.141 3.147.75.75 0 0 1-.268-1.476 2.409 2.409 0 0 0 1.932-1.937.754.754 0 0 1 .87-.606zM12 9.221a2.418 2.418 0 0 0-2.152 3.509l3.245-3.246A2.413 2.413 0 0 0 12 9.222z" clip-rule="evenodd"/></svg>