<svg xmlns="http://www.w3.org/2000/svg" width="211" height="103" fill="none" viewBox="0 0 211 103"><path fill="#fff" d="M144.745 50.156h-35.114c.477.62.953 1.084 1.589 1.548h31.936c.477-.31 1.112-.929 1.589-1.548zm4.29-7.586c.953-2.94 1.43-6.037 1.43-9.288l.159-33.127h-14.936l-.158 33.901c0 3.097-.795 5.419-2.225 7.122-1.43 1.702-3.495 2.476-6.038 2.476-2.542 0-4.607-.929-6.037-2.631-1.43-1.703-2.225-4.025-2.225-7.121L119.164 0h-14.935l-.159 33.128c0 2.786.477 5.882 1.271 9.443.477 1.857 1.271 3.715 2.542 5.418h38.451c1.112-1.703 2.065-3.406 2.701-5.418zm-28.441 13.468c2.701.465 5.402.62 7.627.62 4.131 0 7.467-.62 10.486-1.858.477-.155.954-.464 1.43-.62h-25.739c1.747.775 3.813 1.394 6.196 1.858zm-79.919-5.882H5.56c.477.62.953 1.084 1.589 1.548h31.936c.477-.31 1.112-.929 1.589-1.548zm4.29-7.586c.953-2.94 1.43-6.037 1.43-9.288L46.553.155H31.618l-.159 33.901c0 3.097-.794 5.419-2.224 7.122-1.43 1.702-3.495 2.476-6.038 2.476-2.542 0-4.607-.929-6.037-2.631-1.43-1.703-2.225-4.025-2.225-7.121V0H.16L0 33.128c0 2.786.477 5.882 1.271 9.443.477 1.857 1.271 3.715 2.542 5.418h38.45c1.113-1.703 2.066-3.406 2.702-5.418zM16.524 56.038c2.701.465 5.402.62 7.627.62 4.13 0 7.467-.62 10.486-1.858.477-.155.953-.464 1.43-.62h-25.74c1.748.775 3.814 1.394 6.197 1.858zm76.742-5.882H56.563c.477.62 1.113 1.084 1.748 1.548h33.207c.636-.31 1.113-.929 1.748-1.548zm-30.824 4.18c3.495 1.702 7.626 2.631 12.552 2.631 4.29 0 8.103-.774 11.44-2.167.635-.31 1.112-.464 1.747-.774H61.806c.16.155.477.31.636.31zM97.397 39.63c0-4.8-1.589-8.36-4.767-10.837-3.177-2.477-7.15-4.18-11.598-5.108l-6.991-1.393c-2.066-.31-3.655-1.084-5.085-2.013-1.43-.929-2.224-2.322-2.224-4.025 0-1.857.636-3.25 1.907-4.334 1.27-1.084 3.018-1.548 5.084-1.548 2.86 0 4.925.774 6.197 2.167 1.27 1.393 1.906 2.941 1.906 4.644v.31h14.618v-.465c0-2.786-.795-5.573-2.543-8.204-1.747-2.632-4.29-4.644-7.626-6.347C82.938.774 78.966 0 74.2 0c-4.131 0-7.627.62-10.964 2.012-3.177 1.239-5.72 3.251-7.467 5.728-1.748 2.477-2.701 5.418-2.701 8.824 0 5.263 1.748 8.978 5.243 11.3 3.495 2.322 7.309 3.87 11.28 4.8l6.833 1.238a11.042 11.042 0 0 1 4.767 2.012c1.27 1.084 1.906 2.322 1.906 4.025 0 1.858-.794 3.406-2.224 4.49-1.43 1.083-3.496 1.702-5.879 1.702-2.86 0-5.084-.774-6.514-2.322-1.43-1.548-2.225-3.25-2.225-5.263v-.62H51.638v.62c0 3.096.953 6.037 2.7 8.824.16.154.16.31.319.31h40.357c1.589-2.168 2.383-4.955 2.383-8.05zm74.517-10.372l8.58 11.61h7.626l8.58-11.455v18.576h14.141L211 .155h-11.281l-15.412 21.517L168.736.155h-11.757l.318 47.834h14.458l.159-18.731zm-14.617 20.898v1.703h14.458v-1.703h-14.458zm53.544 3.87H196.7v2.477h14.141v-2.477zm-53.544 2.477h14.458v-2.477h-14.458v2.477zM211 50.156h-14.3v1.548H211v-1.548zM7.957 87.151H16.9l-.255 1.429h-3.663l-1.84 10.475H9.524l1.84-10.475H7.701l.256-1.429zm12.585 11.904H19.01l1.55-8.843h1.534l-1.55 8.843zm1.142-10.356c-.318 0-.562-.091-.733-.272a1.012 1.012 0 0 1-.238-.664c0-.362.113-.651.34-.867.228-.227.512-.34.852-.34.319 0 .557.096.716.29a.91.91 0 0 1 .256.645c0 .363-.114.658-.341.885a1.19 1.19 0 0 1-.852.323zm15.349 2.653c-.284 0-.59.079-.92.238-.33.158-.648.402-.954.73-.296.33-.568.749-.818 1.26-.239.51-.42 1.116-.545 1.819l-.648 3.656h-1.533l.971-5.289c.057-.272.09-.47.102-.595.012-.125.017-.25.017-.374 0-.442-.13-.794-.392-1.054-.25-.261-.579-.391-.988-.391-.295 0-.607.084-.937.255-.33.158-.647.408-.954.748-.307.34-.585.776-.835 1.31-.238.52-.42 1.144-.545 1.87l-.613 3.52h-1.534l1.55-8.843h1.483l-.375 2.04c.34-.68.8-1.224 1.38-1.632.58-.408 1.187-.612 1.823-.612.352 0 .67.057.954.17.284.114.529.272.733.476.216.193.386.431.511.715.125.272.204.566.239.884.386-.714.857-1.264 1.414-1.65a3.15 3.15 0 0 1 1.84-.595c.375 0 .715.062 1.022.187.307.125.568.3.784.527.216.216.38.47.494.766.125.294.187.612.187.952 0 .295-.034.652-.102 1.071l-.988 5.544h-1.534l.972-5.289c.056-.272.09-.47.102-.595.011-.125.017-.25.017-.374 0-.442-.13-.794-.392-1.054-.25-.261-.58-.391-.988-.391zm10.803 7.907c-.568 0-1.085-.09-1.55-.272a3.688 3.688 0 0 1-1.21-.8 3.899 3.899 0 0 1-.784-1.275 4.894 4.894 0 0 1-.272-1.683c0-.703.113-1.372.34-2.007.228-.635.546-1.19.955-1.666a4.52 4.52 0 0 1 1.516-1.123c.59-.283 1.25-.425 1.976-.425.489 0 .926.074 1.312.221.386.147.71.34.971.578.273.238.477.516.614.834.147.317.221.646.221.986 0 .635-.153 1.15-.46 1.547-.295.397-.67.715-1.124.953a5.273 5.273 0 0 1-1.5.476 10.79 10.79 0 0 1-2.47.085 23.557 23.557 0 0 1-.784-.102c.091.748.352 1.32.784 1.717.443.397 1.017.596 1.72.596.569 0 1.074-.074 1.517-.222a9.725 9.725 0 0 0 1.125-.442l.136 1.36c-.34.16-.773.312-1.295.46a6.767 6.767 0 0 1-1.738.204zm.852-7.959c-.398 0-.772.08-1.125.239-.34.147-.647.357-.92.629a3.756 3.756 0 0 0-.664.969c-.17.374-.29.782-.358 1.224.261.057.523.097.784.12.261.022.556.034.886.034.965 0 1.72-.13 2.266-.392.556-.272.835-.73.835-1.377 0-.397-.16-.737-.477-1.02-.307-.284-.716-.425-1.227-.425zm17.879-.765h2.624l-.239 1.327h-2.624l-1.499 8.417c-.09.499-.221.918-.392 1.259-.17.351-.375.634-.613.85a2.098 2.098 0 0 1-.818.459 3.112 3.112 0 0 1-.988.153 3.22 3.22 0 0 1-1.022-.153 2.765 2.765 0 0 1-.835-.425l.613-1.259a1.763 1.763 0 0 0 1.261.511c.307 0 .568-.108.784-.323.227-.216.386-.562.477-1.038l1.5-8.451h-1.364l.239-1.327h1.363l.255-1.36c.193-1.043.562-1.786 1.108-2.228.545-.453 1.243-.68 2.095-.68.466 0 .897.062 1.295.187.398.113.755.255 1.073.425l-.596 1.292a8.98 8.98 0 0 0-.818-.374 2.522 2.522 0 0 0-.97-.17 1.61 1.61 0 0 0-1.074.374c-.296.239-.489.613-.58 1.123l-.255 1.411zm9.293 7.363c.51 0 .965-.096 1.363-.289a3.048 3.048 0 0 0 1.022-.799c.284-.34.5-.737.647-1.19.148-.454.222-.947.222-1.48a3.13 3.13 0 0 0-.188-1.088 2.448 2.448 0 0 0-.51-.884 2.17 2.17 0 0 0-.801-.578 2.565 2.565 0 0 0-1.09-.222c-.5 0-.955.097-1.364.29a3.048 3.048 0 0 0-1.022.799c-.284.34-.5.742-.648 1.207a4.72 4.72 0 0 0-.221 1.463c0 .385.057.748.17 1.088.114.34.279.635.494.884.228.25.5.448.818.595.33.136.699.204 1.108.204zm-.052 1.36c-.636 0-1.21-.096-1.72-.288a3.837 3.837 0 0 1-1.278-.834 3.657 3.657 0 0 1-.818-1.258 4.437 4.437 0 0 1-.29-1.615c0-.737.114-1.423.341-2.058a4.85 4.85 0 0 1 .971-1.666c.432-.477.949-.85 1.55-1.123.603-.272 1.273-.408 2.011-.408.625 0 1.193.102 1.704.306.511.193.943.465 1.295.816.352.352.625.777.818 1.276.193.487.29 1.02.29 1.598a6.21 6.21 0 0 1-.341 2.075 4.916 4.916 0 0 1-.989 1.666c-.42.465-.931.834-1.533 1.106-.602.272-1.272.408-2.01.408zm10.062-6.563a.95.95 0 0 0 .018-.187c.011-.08.017-.159.017-.238 0-.318-.091-.539-.273-.663-.182-.136-.42-.204-.715-.204l.528-1.19c.613 0 1.079.14 1.397.424.318.284.477.715.477 1.293v.34c.33-.816.75-1.395 1.26-1.735a3.102 3.102 0 0 1 1.773-.527c.26 0 .482.023.664.068.193.034.352.08.477.136l-.681 1.497a1.823 1.823 0 0 0-.426-.12 3.4 3.4 0 0 0-.511-.033 1.98 1.98 0 0 0-.92.238c-.307.147-.597.402-.87.765-.272.363-.522.839-.75 1.428-.226.59-.414 1.321-.561 2.194l-.494 2.874h-1.534l1.125-6.36zm17.278 6.36h-1.533l1.55-8.843h1.534l-1.551 8.843zm1.142-10.356c-.318 0-.563-.091-.733-.272a1.012 1.012 0 0 1-.238-.664c0-.362.113-.651.34-.867.227-.227.511-.34.852-.34.318 0 .557.096.716.29.17.18.255.396.255.645 0 .363-.113.658-.34.885a1.192 1.192 0 0 1-.852.323zm9.794 2.653c-.295 0-.619.084-.971.255-.341.158-.676.408-1.005.748-.318.34-.608.776-.869 1.31-.261.52-.454 1.144-.579 1.87l-.614 3.52h-1.533l1.55-8.843h1.483l-.375 2.04a4.4 4.4 0 0 1 1.414-1.632c.591-.408 1.221-.612 1.891-.612.386 0 .738.062 1.056.187.319.125.585.3.801.527.227.216.398.47.511.766.125.294.188.612.188.952 0 .295-.034.652-.102 1.071l-.972 5.544h-1.533l.937-5.289c.057-.272.091-.47.102-.595.012-.125.017-.25.017-.374 0-.442-.13-.794-.391-1.054-.25-.261-.585-.391-1.006-.391zm12.589 0c-.295 0-.619.084-.971.255-.341.158-.676.408-1.006.748-.318.34-.607.776-.868 1.31-.262.52-.455 1.144-.58 1.87l-.613 3.52h-1.533l1.55-8.843h1.482l-.375 2.04a4.41 4.41 0 0 1 1.415-1.632c.59-.408 1.221-.612 1.891-.612.386 0 .738.062 1.056.187.318.125.585.3.801.527.227.216.397.47.511.766.125.294.187.612.187.952 0 .295-.034.652-.102 1.071l-.971 5.544h-1.533l.937-5.289c.056-.272.091-.47.102-.595.011-.125.017-.25.017-.374 0-.442-.131-.794-.392-1.054-.25-.261-.585-.391-1.005-.391zm11.174 6.546c.511 0 .966-.096 1.363-.289a3.028 3.028 0 0 0 1.022-.799c.284-.34.5-.737.648-1.19.148-.454.221-.947.221-1.48a3.13 3.13 0 0 0-.187-1.088 2.455 2.455 0 0 0-.511-.884 2.173 2.173 0 0 0-.801-.578 2.563 2.563 0 0 0-1.09-.222c-.5 0-.954.097-1.363.29a3.05 3.05 0 0 0-1.023.799 3.53 3.53 0 0 0-.647 1.207 4.69 4.69 0 0 0-.222 1.463c0 .385.057.748.171 1.088.113.34.278.635.494.884.227.25.5.448.818.595.329.136.698.204 1.107.204zm-.051 1.36a4.85 4.85 0 0 1-1.721-.288 3.855 3.855 0 0 1-1.278-.834 3.655 3.655 0 0 1-.817-1.258 4.439 4.439 0 0 1-.29-1.615c0-.737.114-1.423.341-2.058a4.85 4.85 0 0 1 .971-1.666c.432-.477.948-.85 1.55-1.123.602-.272 1.273-.408 2.011-.408a4.56 4.56 0 0 1 1.704.306 3.6 3.6 0 0 1 1.294.816c.353.352.625.777.818 1.276.193.487.29 1.02.29 1.598 0 .737-.114 1.429-.341 2.075a4.91 4.91 0 0 1-.988 1.666 4.58 4.58 0 0 1-1.533 1.106c-.602.272-1.273.408-2.011.408zm8.433-8.842l1.448-.374 1.755 7.312 4.242-7.312 1.244.731-4.975 8.282h-1.585l-2.129-8.639zm11.224 5.153c0-.817.136-1.565.409-2.245a5.199 5.199 0 0 1 1.175-1.768 5.307 5.307 0 0 1 1.789-1.14 6.145 6.145 0 0 1 2.266-.408c.67 0 1.255.068 1.755.204.511.136.932.272 1.261.408l-1.073 6.037a3.007 3.007 0 0 0-.034.204v.221c0 .318.09.544.272.68.182.125.42.188.716.188l-.528 1.19c-.614 0-1.085-.147-1.415-.442-.318-.295-.477-.765-.477-1.412a4.927 4.927 0 0 1-1.209 1.395c-.477.385-1.04.578-1.687.578-.42 0-.824-.085-1.21-.255a3.272 3.272 0 0 1-1.039-.731 3.705 3.705 0 0 1-.716-1.157 4.477 4.477 0 0 1-.255-1.547zm6.968-4.047a4.27 4.27 0 0 0-.681-.154 4.355 4.355 0 0 0-.835-.067c-.591 0-1.125.102-1.602.306a3.598 3.598 0 0 0-2.01 2.142 4.729 4.729 0 0 0-.273 1.633c0 .408.057.77.171 1.088.125.306.284.567.477.782.193.216.409.38.647.493.25.102.506.153.767.153.341 0 .664-.09.971-.272.318-.181.602-.436.852-.765.25-.34.466-.737.647-1.19.182-.465.318-.97.409-1.514l.46-2.635zm5.977-.987h1.567l.818-2.789h1.176l-.494 2.79h2.453l-.221 1.326h-2.471l-.715 4.132a3.253 3.253 0 0 0-.069.646c0 .397.114.709.341.935.239.216.557.323.954.323.33 0 .602-.045.818-.136.227-.102.437-.204.631-.306l.187 1.327a3.5 3.5 0 0 1-.818.323 3.503 3.503 0 0 1-1.073.153c-.318 0-.631-.051-.937-.153a2.338 2.338 0 0 1-.818-.425 2.258 2.258 0 0 1-.579-.782c-.148-.318-.222-.698-.222-1.14 0-.125.006-.25.017-.374.012-.136.029-.29.051-.46l.699-4.063h-1.517l.222-1.327zm10.438 8.52h-1.534l1.551-8.843h1.533l-1.55 8.843zm1.141-10.356c-.318 0-.562-.091-.732-.272a1.008 1.008 0 0 1-.239-.664c0-.362.114-.651.341-.867.227-.227.511-.34.852-.34.318 0 .556.096.715.29a.91.91 0 0 1 .256.645c0 .363-.114.658-.341.885a1.19 1.19 0 0 1-.852.323zm8.381 9.199c.511 0 .965-.096 1.363-.289a3.048 3.048 0 0 0 1.022-.799c.284-.34.5-.737.647-1.19.148-.454.222-.947.222-1.48a3.13 3.13 0 0 0-.188-1.088 2.44 2.44 0 0 0-.511-.884 2.17 2.17 0 0 0-.8-.578 2.57 2.57 0 0 0-1.091-.222c-.5 0-.954.097-1.363.29a3.048 3.048 0 0 0-1.022.799c-.284.34-.5.742-.648 1.207a4.72 4.72 0 0 0-.221 1.463c0 .385.057.748.17 1.088.114.34.279.635.494.884.228.25.5.448.818.595.33.136.699.204 1.108.204zm-.051 1.36c-.637 0-1.21-.096-1.721-.288a3.834 3.834 0 0 1-1.278-.834 3.658 3.658 0 0 1-.818-1.258 4.439 4.439 0 0 1-.29-1.615c0-.737.114-1.423.341-2.058a4.85 4.85 0 0 1 .971-1.666 4.66 4.66 0 0 1 1.551-1.123c.602-.272 1.272-.408 2.01-.408.625 0 1.193.102 1.704.306.511.193.943.465 1.295.816.352.352.625.777.818 1.276a4.3 4.3 0 0 1 .289 1.598c0 .737-.113 1.429-.34 2.075a4.928 4.928 0 0 1-.989 1.666 4.58 4.58 0 0 1-1.533 1.106c-.602.272-1.272.408-2.01.408zm14.253-7.906c-.295 0-.619.084-.971.255-.341.158-.676.408-1.005.748-.318.34-.608.776-.869 1.31-.262.52-.455 1.144-.58 1.87l-.613 3.52h-1.533l1.55-8.843h1.482l-.374 2.04a4.4 4.4 0 0 1 1.414-1.632c.59-.408 1.221-.612 1.891-.612.386 0 .738.062 1.056.187.318.125.585.3.801.527.227.216.397.47.511.766.125.294.187.612.187.952 0 .295-.034.652-.102 1.071l-.971 5.544h-1.533l.937-5.289c.057-.272.091-.47.102-.595.011-.125.017-.25.017-.374 0-.442-.131-.794-.392-1.054-.25-.261-.585-.391-1.005-.391z"/></svg>