<svg width="24" height="24" viewBox="0 0 24 24" fill="none" xmlns="http://www.w3.org/2000/svg">
<path d="M7.25367 18.0002C6.93501 18.0002 6.61635 17.8828 6.36478 17.6313C5.87841 17.1451 5.87841 16.3404 6.36478 15.8542L15.8574 6.36484C16.3438 5.87863 17.1488 5.87863 17.6352 6.36484C18.1216 6.85104 18.1216 7.65579 17.6352 8.14199L8.14256 17.6313C7.90776 17.8828 7.57233 18.0002 7.25367 18.0002Z" fill="#B1B1B1"/>
<path d="M16.7463 18.0002C16.4277 18.0002 16.109 17.8828 15.8574 17.6313L6.36478 8.14199C5.87841 7.65579 5.87841 6.85104 6.36478 6.36484C6.85115 5.87863 7.65618 5.87863 8.14256 6.36484L17.6352 15.8542C18.1216 16.3404 18.1216 17.1451 17.6352 17.6313C17.3836 17.8828 17.065 18.0002 16.7463 18.0002Z" fill="#B1B1B1"/>
</svg>
