<svg xmlns="http://www.w3.org/2000/svg" width="24" height="24" fill="none" viewBox="0 0 24 24"><path fill="#B8B8B8" fill-rule="evenodd" d="M12.003 4c4.136.003 7.85 2.902 9.936 7.757a.742.742 0 0 1 0 .591c-2.085 4.855-5.8 7.754-9.936 7.757h-.006c-4.136-.003-7.85-2.902-9.936-7.757a.751.751 0 0 1 0-.591C4.147 6.902 7.86 4.003 11.997 4h.006zM12 5.5c-3.436.001-6.57 2.444-8.43 6.553 1.86 4.108 4.993 6.552 8.43 6.552 3.437 0 6.57-2.444 8.43-6.553C18.57 7.945 15.437 5.503 12 5.5zm0 2.641a3.917 3.917 0 0 1 3.912 3.912 3.915 3.915 0 0 1-3.913 3.91 3.915 3.915 0 0 1-3.91-3.91 3.916 3.916 0 0 1 3.91-3.912zm0 1.5a2.414 2.414 0 0 0-2.412 2.412A2.413 2.413 0 0 0 12 14.463a2.414 2.414 0 0 0 2.412-2.41 2.415 2.415 0 0 0-2.413-2.412z" clip-rule="evenodd"/></svg>