<svg xmlns="http://www.w3.org/2000/svg" width="18" height="19" fill="none" viewBox="0 0 18 19"><path fill="#292D32" d="M11.25 17.563h-4.5c-4.072 0-5.813-1.74-5.813-5.813v-4.5c0-4.072 1.74-5.813 5.813-5.813h4.5c4.072 0 5.813 1.74 5.813 5.813v4.5c0 4.072-1.74 5.813-5.813 5.813zm-4.5-15c-3.458 0-4.688 1.23-4.688 4.687v4.5c0 3.457 1.23 4.688 4.688 4.688h4.5c3.457 0 4.688-1.23 4.688-4.688v-4.5c0-3.458-1.23-4.688-4.688-4.688h-4.5z"/><path fill="#292D32" d="M9 11.682a.556.556 0 0 1-.397-.165L5.955 8.87a.566.566 0 0 1 0-.795.566.566 0 0 1 .795 0L9 10.325l2.25-2.25a.566.566 0 0 1 .795 0 .566.566 0 0 1 0 .795l-2.647 2.648a.556.556 0 0 1-.398.164z"/></svg>