<svg xmlns="http://www.w3.org/2000/svg" width="16" height="16" fill="none" viewBox="0 0 16 16"><path fill="#F88F01" d="M8 9.833a.504.504 0 0 1-.5-.5V6c0-.273.227-.5.5-.5s.5.227.5.5v3.333c0 .274-.227.5-.5.5zM8 12a.996.996 0 0 1-.133-.013.425.425 0 0 1-.12-.04.502.502 0 0 1-.12-.06l-.1-.08a.701.701 0 0 1-.194-.474c0-.173.074-.346.194-.473l.1-.08a.51.51 0 0 1 .12-.06c.04-.02.08-.033.12-.04a.57.57 0 0 1 .26 0c.046.007.086.02.126.04a.51.51 0 0 1 .12.06l.1.08c.12.127.194.3.194.473a.701.701 0 0 1-.194.474l-.1.08a.502.502 0 0 1-.12.06.403.403 0 0 1-.126.04A.813.813 0 0 1 8 12z"/><path fill="#F88F01" d="M12.04 14.773H3.96c-1.3 0-2.293-.473-2.8-1.326-.5-.854-.433-1.954.2-3.094L5.4 3.087c.667-1.2 1.587-1.86 2.6-1.86 1.013 0 1.933.66 2.6 1.86l4.04 7.273c.633 1.14.707 2.233.2 3.093-.507.847-1.5 1.32-2.8 1.32zM8 2.227c-.627 0-1.24.48-1.727 1.346L2.24 10.847c-.453.813-.527 1.56-.213 2.1.313.54 1.006.833 1.94.833h8.08c.933 0 1.62-.293 1.94-.833.32-.54.24-1.28-.214-2.1L9.727 3.573C9.24 2.707 8.627 2.227 8 2.227z"/></svg>